<svg width="100" height="100" viewBox="0 0 100 100" fill="none" xmlns="http://www.w3.org/2000/svg">
<path d="M37.1666 37.1792C37.1644 36.4397 37.359 35.713 37.7304 35.0736C38.1018 34.4342 38.6367 33.9052 39.2802 33.5409C39.9236 33.1765 40.6525 32.9899 41.3918 33.0003C42.1312 33.0107 42.8545 33.2177 43.4874 33.6L64.3083 46.0875C64.9281 46.4569 65.4414 46.981 65.7979 47.6084C66.1543 48.2358 66.3417 48.9451 66.3417 49.6667C66.3417 50.3883 66.1543 51.0975 65.7979 51.7249C65.4414 52.3523 64.9281 52.8764 64.3083 53.2458L43.4874 65.7333C42.8542 66.1158 42.1305 66.3228 41.3908 66.333C40.6511 66.3432 39.9219 66.1563 39.2784 65.7915C38.6348 65.4266 38.0999 64.897 37.7288 64.257C37.3577 63.617 37.1636 62.8898 37.1666 62.15V37.1792Z" stroke="white" stroke-width="8.33333" stroke-linecap="round" stroke-linejoin="round"/>
<path d="M49.6666 91.3333C72.6785 91.3333 91.3333 72.6785 91.3333 49.6667C91.3333 26.6548 72.6785 8 49.6666 8C26.6547 8 7.99994 26.6548 7.99994 49.6667C7.99994 72.6785 26.6547 91.3333 49.6666 91.3333Z" stroke="white" stroke-width="8.33333" stroke-linecap="round" stroke-linejoin="round"/>
</svg>
