<svg width="25" height="25" viewBox="0 0 25 25" fill="none" xmlns="http://www.w3.org/2000/svg">
<path d="M5.1264 21.8576H19.1264M11.6884 4.12359C11.7316 4.0452 11.795 3.97982 11.872 3.93429C11.9491 3.88876 12.0369 3.86475 12.1264 3.86475C12.2159 3.86475 12.3037 3.88876 12.3808 3.93429C12.4578 3.97982 12.5212 4.0452 12.5644 4.12359L15.5164 9.72759C15.5868 9.85735 15.6851 9.96992 15.8041 10.0572C15.9232 10.1445 16.0601 10.2043 16.205 10.2324C16.3499 10.2606 16.4993 10.2562 16.6423 10.2198C16.7854 10.1833 16.9186 10.1156 17.0324 10.0216L21.3094 6.35759C21.3915 6.29081 21.4927 6.25181 21.5984 6.24619C21.704 6.24057 21.8088 6.26864 21.8975 6.32634C21.9862 6.38404 22.0543 6.4684 22.0921 6.56728C22.1298 6.66616 22.1352 6.77446 22.1074 6.87659L19.2734 17.1226C19.2156 17.3323 19.0909 17.5173 18.9184 17.6498C18.7459 17.7823 18.5349 17.8549 18.3174 17.8566H5.9364C5.71874 17.8551 5.50751 17.7826 5.33479 17.6501C5.16207 17.5176 5.0373 17.3324 4.9794 17.1226L2.1464 6.87759C2.11865 6.77546 2.12402 6.66716 2.16174 6.56828C2.19946 6.4694 2.26758 6.38504 2.3563 6.32734C2.44502 6.26964 2.54976 6.24157 2.65544 6.24719C2.76112 6.25281 2.8623 6.29181 2.9444 6.35859L7.2204 10.0226C7.3342 10.1166 7.46741 10.1843 7.61046 10.2208C7.75352 10.2572 7.90287 10.2616 8.0478 10.2334C8.19273 10.2053 8.32964 10.1455 8.44869 10.0582C8.56775 9.97092 8.666 9.85835 8.7364 9.72859L11.6884 4.12359Z" stroke="white" stroke-width="2" stroke-linecap="round" stroke-linejoin="round"/>
</svg>
