<svg width="50" height="50" viewBox="0 0 50 50" fill="none" xmlns="http://www.w3.org/2000/svg">
<path d="M12.4998 25C12.4998 21.4584 13.9582 18.3334 16.2498 16.25M37.4998 25C37.4998 28.5417 36.0415 31.6667 33.7498 33.75M45.8332 25C45.8332 36.506 36.5058 45.8334 24.9998 45.8334C13.4939 45.8334 4.1665 36.506 4.1665 25C4.1665 13.4941 13.4939 4.16669 24.9998 4.16669C36.5058 4.16669 45.8332 13.4941 45.8332 25ZM29.1665 25C29.1665 27.3012 27.301 29.1667 24.9998 29.1667C22.6987 29.1667 20.8332 27.3012 20.8332 25C20.8332 22.6988 22.6987 20.8334 24.9998 20.8334C27.301 20.8334 29.1665 22.6988 29.1665 25Z" stroke="#2B7FFF" stroke-width="4.16667" stroke-linecap="round" stroke-linejoin="round"/>
</svg>
