<svg width="25" height="25" viewBox="0 0 25 25" fill="none" xmlns="http://www.w3.org/2000/svg">
<path d="M6.65645 12.1577L2.85645 22.8577L13.5564 19.0677M4.85645 3.85767H4.86645M22.8564 8.85767H22.8664M15.8564 2.85767H15.8664M22.8564 20.8577H22.8664M22.8564 2.85767L20.6164 3.60767C19.9788 3.82005 19.4348 4.24731 19.0773 4.81639C18.7198 5.38547 18.571 6.06106 18.6564 6.72767C18.7564 7.58767 18.0864 8.35767 17.2064 8.35767H16.8264C15.9664 8.35767 15.2264 8.95767 15.0664 9.79767L14.8564 10.8577M22.8564 13.8577L22.0364 13.5277C21.1764 13.1877 20.2164 13.7277 20.0564 14.6377C19.9464 15.3377 19.3364 15.8577 18.6264 15.8577H17.8564M11.8564 2.85767L12.1864 3.67767C12.5264 4.53767 11.9864 5.49767 11.0764 5.65767C10.3764 5.75767 9.85645 6.37767 9.85645 7.08767V7.85767M11.8564 13.8577C13.7864 15.7877 14.6864 18.0277 13.8564 18.8577C13.0264 19.6877 10.7864 18.7877 8.85645 16.8577C6.92645 14.9277 6.02645 12.6877 6.85645 11.8577C7.68645 11.0277 9.92645 11.9277 11.8564 13.8577Z" stroke="white" stroke-width="2" stroke-linecap="round" stroke-linejoin="round"/>
</svg>
